<svg width="74" height="219" viewBox="0 0 74 219" fill="none" xmlns="http://www.w3.org/2000/svg">
<path d="M58.48 219C54.7467 219 51.48 217.6 48.68 214.8C45.88 212 44.48 208.64 44.48 204.72V33.92L24.04 42.6C20.8667 43.9067 17.88 44.56 15.08 44.56C10.9733 44.56 7.52 43.2533 4.72 40.64C2.10667 38.0267 0.8 34.6667 0.8 30.56C0.8 27.5733 1.54667 24.8667 3.04 22.44C4.53333 20.0133 6.86667 18.24 10.04 17.12L53.72 1.44C54.6533 1.06666 55.5867 0.786656 56.52 0.599991C57.4533 0.413327 58.2933 0.319995 59.04 0.319995C63.3333 0.319995 66.6933 1.71999 69.12 4.51999C71.7333 7.13332 73.04 10.5867 73.04 14.88V204.72C73.04 208.64 71.64 212 68.84 214.8C66.04 217.6 62.5867 219 58.48 219Z" fill="black"/>
</svg>
