<svg width="42" height="125" viewBox="0 0 42 125" fill="none" xmlns="http://www.w3.org/2000/svg">
<path d="M33.56 125C31.4267 125 29.56 124.2 27.96 122.6C26.36 121 25.56 119.08 25.56 116.84V19.24L13.88 24.2C12.0667 24.9467 10.36 25.32 8.76 25.32C6.41333 25.32 4.44 24.5733 2.84 23.08C1.34667 21.5867 0.6 19.6667 0.6 17.32C0.6 15.6133 1.02667 14.0667 1.88 12.68C2.73333 11.2933 4.06667 10.28 5.88 9.64L30.84 0.679998C31.3733 0.466661 31.9067 0.30666 32.44 0.199995C32.9733 0.0933297 33.4533 0.0399971 33.88 0.0399971C36.3333 0.0399971 38.2533 0.839996 39.64 2.43999C41.1333 3.93333 41.88 5.90666 41.88 8.35999V116.84C41.88 119.08 41.08 121 39.48 122.6C37.88 124.2 35.9067 125 33.56 125Z" fill="black"/>
</svg>
