<svg width="77" height="125" viewBox="0 0 77 125" fill="none" xmlns="http://www.w3.org/2000/svg">
<path d="M8.56 125C6.21333 125 4.24 124.2 2.64 122.6C1.14667 121 0.400001 119.08 0.400001 116.84C0.400001 114.493 1.14667 112.573 2.64 111.08L48.08 57.96C51.28 54.2267 53.7333 50.7067 55.44 47.4C57.2533 44.0933 58.16 40.9467 58.16 37.96C58.16 33.2667 57.36 29.2133 55.76 25.8C54.16 22.3867 51.8667 19.7733 48.88 17.96C45.8933 16.04 42.32 15.08 38.16 15.08C34.1067 15.08 30.4267 16.1467 27.12 18.28C23.92 20.3067 21.36 23.08 19.44 26.6C17.6267 30.0133 16.72 33.8 16.72 37.96C16.72 40.0933 15.92 41.96 14.32 43.56C12.8267 45.16 10.9067 45.96 8.56 45.96C6.32 45.96 4.4 45.16 2.8 43.56C1.2 41.96 0.400001 40.0933 0.400001 37.96C0.400001 30.7067 2.05333 24.2533 5.36 18.6C8.66667 12.84 13.1467 8.30666 18.8 4.99999C24.56 1.69333 31.0133 0.0399971 38.16 0.0399971C45.4133 0.0399971 51.7067 1.58666 57.04 4.67999C62.3733 7.77333 66.48 12.1467 69.36 17.8C72.3467 23.4533 73.84 30.1733 73.84 37.96C73.84 41.3733 73.0933 44.84 71.6 48.36C70.2133 51.88 68.4 55.24 66.16 58.44C64.0267 61.64 61.84 64.52 59.6 67.08L22.96 108.68H67.76C70.1067 108.68 72.08 109.533 73.68 111.24C75.28 112.84 76.08 114.707 76.08 116.84C76.08 119.08 75.28 121 73.68 122.6C72.08 124.2 70.1067 125 67.76 125H8.56Z" fill="black"/>
</svg>
