<svg width="133" height="219" viewBox="0 0 133 219" fill="none" xmlns="http://www.w3.org/2000/svg">
<path d="M14.48 219C10.3733 219 6.92 217.6 4.12 214.8C1.50667 212 0.200001 208.64 0.200001 204.72C0.200001 200.613 1.50667 197.253 4.12 194.64L83.64 101.68C89.24 95.1467 93.5333 88.9867 96.52 83.2C99.6933 77.4133 101.28 71.9067 101.28 66.68C101.28 58.4667 99.88 51.3733 97.08 45.4C94.28 39.4267 90.2667 34.8533 85.04 31.68C79.8133 28.32 73.56 26.64 66.28 26.64C59.1867 26.64 52.7467 28.5067 46.96 32.24C41.36 35.7867 36.88 40.64 33.52 46.8C30.3467 52.7733 28.76 59.4 28.76 66.68C28.76 70.4133 27.36 73.68 24.56 76.48C21.9467 79.28 18.5867 80.68 14.48 80.68C10.56 80.68 7.2 79.28 4.4 76.48C1.6 73.68 0.200001 70.4133 0.200001 66.68C0.200001 53.9867 3.09333 42.6933 8.88 32.8C14.6667 22.72 22.5067 14.7867 32.4 8.99998C42.48 3.21332 53.7733 0.319995 66.28 0.319995C78.9733 0.319995 89.9867 3.02666 99.32 8.43999C108.653 13.8533 115.84 21.5067 120.88 31.4C126.107 41.2933 128.72 53.0533 128.72 66.68C128.72 72.6533 127.413 78.72 124.8 84.88C122.373 91.04 119.2 96.92 115.28 102.52C111.547 108.12 107.72 113.16 103.8 117.64L39.68 190.44H118.08C122.187 190.44 125.64 191.933 128.44 194.92C131.24 197.72 132.64 200.987 132.64 204.72C132.64 208.64 131.24 212 128.44 214.8C125.64 217.6 122.187 219 118.08 219H14.48Z" fill="black"/>
</svg>
