<svg width="141" height="219" viewBox="0 0 141 219" fill="none" xmlns="http://www.w3.org/2000/svg">
<path d="M72.36 219C58.36 219 45.9467 216.107 35.12 210.32C24.2933 204.347 15.8 196.32 9.64 186.24C3.48 175.973 0.400001 164.493 0.400001 151.8C0.400001 147.507 1.61333 144.053 4.04 141.44C6.65333 138.64 9.73333 137.24 13.28 137.24C17.0133 137.24 20.0933 138.64 22.52 141.44C24.9467 144.053 26.16 147.507 26.16 151.8C26.16 159.453 28.12 166.547 32.04 173.08C35.96 179.427 41.28 184.56 48 188.48C54.72 192.213 62.28 194.08 70.68 194.08C83 194.08 92.8933 190.72 100.36 184C108.013 177.093 111.84 167.48 111.84 155.16C111.84 147.32 110.16 140.32 106.8 134.16C103.44 127.813 98.8667 122.773 93.08 119.04C87.2933 115.307 80.76 113.44 73.48 113.44C69.3733 113.44 65.92 112.04 63.12 109.24C60.5067 106.44 59.2 102.987 59.2 98.88C59.2 94.7733 60.5067 91.4133 63.12 88.8C65.92 86 69.3733 84.6 73.48 84.6C78.7067 84.6 83.7467 83.2933 88.6 80.68C93.4533 77.88 97.4667 74.24 100.64 69.76C103.813 65.0933 105.4 59.8667 105.4 54.08C105.4 45.8667 102.413 38.96 96.44 33.36C90.4667 27.76 82.8133 24.96 73.48 24.96C66.3867 24.96 59.8533 26.36 53.88 29.16C48.0933 31.96 43.4267 35.6933 39.88 40.36C36.52 45.0267 34.84 50.2533 34.84 56.04C34.84 60.3333 33.6267 63.9733 31.2 66.96C28.7733 69.76 25.6933 71.16 21.96 71.16C18.4133 71.16 15.3333 69.8533 12.72 67.24C10.2933 64.44 9.08 60.9867 9.08 56.88C9.08 46.0533 11.88 36.3467 17.48 27.76C23.08 19.1733 30.7333 12.4533 40.44 7.59998C50.1467 2.55998 60.9733 0.0399818 72.92 0.0399818C83.9333 0.0399818 93.8267 2.46665 102.6 7.31999C111.56 11.9867 118.56 18.4267 123.6 26.64C128.827 34.6667 131.44 43.8133 131.44 54.08C131.44 61.36 129.76 67.8 126.4 73.4C123.227 79 119.12 83.8533 114.08 87.96C109.04 91.88 103.72 95.1467 98.12 97.76C108.013 101.12 116.04 105.693 122.2 111.48C128.36 117.08 132.84 123.613 135.64 131.08C138.627 138.547 140.12 146.667 140.12 155.44C140.12 167.573 137.04 178.493 130.88 188.2C124.72 197.72 116.507 205.28 106.24 210.88C95.9733 216.293 84.68 219 72.36 219Z" fill="black"/>
</svg>
