<svg width="1197" height="609" viewBox="0 0 1197 609" fill="none" xmlns="http://www.w3.org/2000/svg">
<rect width="1196.93" height="606.325" fill="url(#paint0_linear_229_2286)"/>
<g filter="url(#filter0_f_229_2286)">
<path d="M582.568 115.474C568.06 81.5916 595.716 72.9722 615.212 81.5916C630.083 56.9819 653.296 58.5571 664.177 66.8793C659.462 54.0395 675.512 45.0336 675.512 45.0336C697.728 27.2006 722.966 43.399 729.464 66.8793C738.23 62.2724 763.014 57.6953 773.896 81.5916C790.217 72.2291 808.806 82.929 812.887 92.2914C816.967 101.654 830.572 124.481 787.044 125.728C740.375 127.066 634.707 127.066 622.013 127.066C609.318 127.066 592.543 126.62 582.568 115.474Z" fill="url(#paint1_linear_229_2286)"/>
</g>
<path d="M1196.79 454.248C1196.79 695.837 1212.31 562.471 974.798 562.471C728.589 562.471 305.189 534.243 305.189 454.248C305.189 374.254 504.782 309.405 750.991 309.405C997.201 309.405 1196.79 374.254 1196.79 454.248Z" fill="#7CBD99"/>
<path d="M789.391 383.829C768.828 370.864 738.587 340.464 782.134 322.582C786.67 322.284 796.377 323.565 798.917 331.076C796.347 317.664 796.83 293.255 819.33 302.911C816.305 293.374 815.156 274.3 834.752 274.3C851.025 274.3 857.688 280.613 860.195 284.852C858.117 276.686 856.798 258.149 883.742 259.547C911.322 260.977 910.959 279.515 907.33 288.605C912.925 274.895 933.912 252.036 954.959 268.488C970.337 280.508 973.007 287.488 972.571 291.124C975.994 287.119 983.429 281.711 994.877 288.605C1007.94 296.474 1006.07 311.852 1003.5 318.558C1010.9 314.982 1026.72 310.78 1030.71 322.582C1034.7 334.384 1028.44 346.574 1024.82 351.194C1036.91 350.896 1059.83 354.502 1054.75 371.311C1049.67 388.121 1026.93 393.515 1016.2 394.112C966.148 390.684 850.719 383.829 789.391 383.829Z" fill="#609881"/>
<path fill-rule="evenodd" clip-rule="evenodd" d="M398.292 576.146C656.579 576.146 865.962 522.628 865.962 456.61C865.962 390.592 656.579 337.074 398.292 337.074C229.937 337.074 82.3588 359.812 0 393.928V519.292C82.3588 553.408 229.937 576.146 398.292 576.146Z" fill="#96D8AE"/>
<path fill-rule="evenodd" clip-rule="evenodd" d="M884.858 581.222C1086.2 581.866 1181.97 582.173 1181.97 526.452C1181.97 464.39 1163.38 425.271 1014.22 395.723C987.825 394.299 960.416 392.68 932.432 391.026C670.084 375.526 357.268 357.043 357.268 468.698C357.268 530.76 560.863 581.071 812.011 581.071C837.67 581.071 861.947 581.149 884.858 581.222Z" fill="#7CBD99"/>
<path d="M8.51837e-06 588.529C-0.00113713 583.895 0.113658 559.019 0.113658 518.856C391.327 355.972 1184.18 550.094 1191.89 553.664C1198.05 556.52 1196.57 559.912 1196.87 563.928C1196.87 566.457 1196.85 578.298 1196.87 578.654C1197.33 587.58 1195.06 592.042 1193.7 594.72C1192.79 596.951 1188.71 601.414 1188.26 601.86C1188 602.112 1185.09 604.389 1183.27 605.43C1181.46 606.769 1177.35 607.891 1176.47 608.107C1174.66 608.554 1173.3 609 1170.58 609L72.1914 609H45.899H25.0462H20.3645H14.9616H11.6368H8.51837e-06C-5.9059e-05 602.176 0.000931883 592.264 8.51837e-06 588.529Z" fill="#99DCB0"/>
<path d="M466.67 586.914C462.727 580.127 467.492 580.047 470.367 580.854C470.778 578.431 472.216 573.947 474.681 575.401C477.398 577.004 478.677 579.079 478.519 579.546C483.347 576.264 485.366 577.025 485.773 577.825C486.502 578.423 487.534 579.374 487.948 580.051C489.572 578.85 493.95 576.993 494.4 579.643C494.892 582.551 492.551 585.702 491.318 586.914H466.67Z" fill="#7DB39A"/>
<path d="M466.67 586.914C462.727 580.127 467.492 580.047 470.367 580.854C470.778 578.431 472.216 573.947 474.681 575.401C477.762 577.219 478.994 579.643 478.378 579.643C483.308 576.249 485.362 577.017 485.773 577.825C487.005 578.835 489.1 580.854 487.621 580.854C485.773 580.854 493.783 576.007 494.4 579.643C494.892 582.551 492.551 585.702 491.318 586.914H466.67Z" stroke="#7DB39A"/>
<path d="M489.586 336.468C484.504 330.458 489.183 329.564 492.157 329.869C492.134 327.412 492.758 322.751 495.442 323.762C498.401 324.877 500.027 326.701 499.954 327.189C504.129 323.132 506.251 323.536 506.793 324.255C507.617 324.719 508.801 325.48 509.329 326.076C510.716 324.615 514.7 322.039 515.61 324.572C516.609 327.352 514.86 330.855 513.86 332.259L489.586 336.468Z" fill="#609881"/>
<path d="M489.586 336.468C484.504 330.458 489.183 329.564 492.157 329.869C492.134 327.412 492.758 322.751 495.442 323.762C498.797 325.026 500.439 327.203 499.832 327.308C504.088 323.124 506.246 323.529 506.793 324.255C508.185 325.039 510.605 326.67 509.149 326.923C507.328 327.238 514.361 321.097 515.61 324.572C516.609 327.352 514.86 330.855 513.86 332.259L489.586 336.468Z" stroke="#609881"/>
<path d="M784.284 551.718C781.203 549.9 776.397 545.779 781.82 543.84C787.323 541.873 788.358 545.896 788.223 547.155C792.082 542.106 795.816 541.219 797.225 541.417C799.073 542.023 802.401 544.083 800.922 547.476C799.443 550.869 797.841 551.718 797.225 551.718H784.284Z" fill="#7DB39A"/>
<path d="M784.284 551.718C781.203 549.9 776.397 545.779 781.82 543.84C788.598 541.417 788.598 548.082 787.982 547.476C791.925 542.144 795.787 541.215 797.225 541.417C799.073 542.023 802.401 544.083 800.922 547.476C799.443 550.869 797.841 551.718 797.225 551.718H784.284Z" stroke="#7DB39A"/>
<path d="M182.65 550.668C179.569 548.85 174.762 544.73 180.185 542.791C185.688 540.823 186.723 544.847 186.588 546.106C190.447 541.057 194.181 540.17 195.59 540.367C197.439 540.973 200.766 543.033 199.287 546.427C197.808 549.82 196.206 550.668 195.59 550.668H182.65Z" fill="#7DB39A"/>
<path d="M182.65 550.668C179.569 548.85 174.762 544.73 180.185 542.791C186.963 540.367 186.963 547.033 186.347 546.427C190.291 541.094 194.152 540.165 195.59 540.367C197.439 540.973 200.766 543.033 199.287 546.427C197.808 549.82 196.206 550.668 195.59 550.668H182.65Z" stroke="#7DB39A"/>
<path d="M62.1821 500.322C42.6337 487.101 14.8993 458.678 68.3296 452.491C52.8881 436.345 31.5889 404.718 69.925 407.378C89.4727 408.735 99.3939 411.528 103.875 414.439C101.649 399.032 104.371 378.423 128.135 380.947C156.114 383.919 167.08 394.279 169.065 399.087C165.71 389.492 166.725 371.237 197.632 374.979C228.54 378.722 232.202 390.112 230.17 395.339C235.912 389.682 251.191 380.841 266.361 390.732C279.8 399.494 273.957 408.204 267.862 412.634C277.154 406.999 295.519 399.159 310.236 403.955C326.31 409.194 312.937 445.055 305.649 459.581C203.184 469.43 100.448 488.668 62.1821 500.322Z" fill="#7DB39A"/>
<path d="M62.1821 500.322C42.6337 487.101 14.8993 458.678 68.3296 452.491C52.8881 436.345 31.5889 404.718 69.925 407.378C108.261 410.039 109.573 418.225 105.436 421.986C101.345 407.068 100.157 377.975 128.135 380.947C156.114 383.919 167.08 394.279 169.065 399.087C165.71 389.492 166.725 371.237 197.632 374.979C228.54 378.722 232.202 390.112 230.17 395.339C235.912 389.682 251.191 380.841 266.361 390.732C281.531 400.623 272.131 410.448 265.534 414.124C273.737 408.551 294.163 398.717 310.236 403.955C326.31 409.194 312.937 445.055 305.649 459.581C203.184 469.43 100.448 488.668 62.1821 500.322Z" stroke="#7DB39A"/>
<path fill-rule="evenodd" clip-rule="evenodd" d="M931.095 468.676C933.46 468.311 933.626 465.978 933.413 464.857C934.248 465.678 935.461 465.997 935.964 466.054C936.737 466.206 938.479 465.872 939.268 463.319C940.056 460.765 937.394 459.329 935.964 458.93C936.756 457.524 938.317 454.963 935.442 453.458C932.567 451.953 930.341 454.256 929.646 455.738C929.646 455.191 928.1 453.876 927.617 453.458C926.535 452.793 924.197 452.466 922.574 454.655C920.951 456.844 922.71 458.265 923.908 458.93L923.444 459.158C919.85 460.07 921.531 464.686 922.766 465.002C922.862 465.061 922.938 465.107 922.98 465.142C923.42 465.513 925.53 465.712 926.226 465.484C926.589 465.365 926.791 465.175 926.893 465.015C926.81 465.308 926.77 465.823 926.98 466.51C927.327 467.65 928.139 469.132 931.095 468.676ZM929.21 461.747C928.664 461.672 927.396 460.54 928.512 459.202C928.594 459.274 929.89 457.642 931.556 458.728C932.61 459.74 932.61 460.855 932.227 461.301C930.343 462.204 930.754 461.958 929.21 461.747Z" fill="#D26C55"/>
<path d="M929.21 461.747C930.754 461.958 930.343 462.204 932.227 461.301C932.61 460.855 932.61 459.74 931.556 458.728C929.89 457.642 928.594 459.274 928.512 459.202C927.396 460.54 928.664 461.672 929.21 461.747Z" fill="#FFD600"/>
<path fill-rule="evenodd" clip-rule="evenodd" d="M291.294 378.452C294.841 377.905 295.09 374.405 294.772 372.724C296.024 373.955 297.844 374.434 298.597 374.519C299.756 374.747 302.37 374.246 303.553 370.416C304.735 366.585 300.742 364.431 298.597 363.832C299.785 361.723 302.127 357.882 297.815 355.625C293.502 353.368 290.164 356.822 289.12 359.045C289.12 358.224 286.802 356.252 286.077 355.625C284.454 354.627 280.947 354.137 278.513 357.42C276.079 360.703 278.716 362.835 280.513 363.832L279.817 364.174C274.427 365.542 276.948 372.467 278.8 372.94C278.945 373.029 279.058 373.098 279.122 373.151C279.782 373.708 282.947 374.006 283.99 373.664C284.535 373.486 284.838 373.201 284.99 372.961C284.867 373.4 284.806 374.172 285.121 375.203C285.642 376.913 286.86 379.136 291.294 378.452ZM288.466 368.058C287.648 367.946 285.745 366.247 287.419 364.241C287.542 364.349 289.486 361.9 291.986 363.53C293.566 365.048 293.566 366.72 292.991 367.389C290.166 368.744 290.782 368.375 288.466 368.058Z" fill="#D26C55"/>
<path d="M288.466 368.058C290.782 368.375 290.166 368.744 292.991 367.389C293.566 366.72 293.566 365.048 291.986 363.53C289.486 361.9 287.542 364.349 287.419 364.241C285.745 366.247 287.648 367.946 288.466 368.058Z" fill="#FFD600"/>
<path fill-rule="evenodd" clip-rule="evenodd" d="M623.016 540.399C628.928 539.487 629.343 533.654 628.812 530.852C630.899 532.904 633.932 533.702 635.188 533.844C637.12 534.224 641.477 533.388 643.448 527.005C645.418 520.621 638.762 517.03 635.188 516.033C637.168 512.518 641.071 506.115 633.884 502.353C626.697 498.592 621.132 504.348 619.393 508.053C619.393 506.685 615.529 503.398 614.321 502.353C611.616 500.691 605.772 499.874 601.714 505.346C597.657 510.817 602.052 514.37 605.047 516.033L603.888 516.603C594.904 518.882 599.106 530.424 602.193 531.213C602.434 531.36 602.623 531.475 602.729 531.564C603.829 532.492 609.105 532.989 610.843 532.419C611.751 532.122 612.256 531.646 612.51 531.246C612.304 531.979 612.203 533.266 612.727 534.984C613.597 537.834 615.625 541.539 623.016 540.399ZM618.302 523.075C616.94 522.888 613.768 520.057 616.558 516.713C616.764 516.894 620.002 512.812 624.169 515.529C626.803 518.059 626.803 520.846 625.845 521.96C621.136 524.218 622.163 523.603 618.302 523.075Z" fill="#D26C55"/>
<path d="M618.302 523.075C622.163 523.603 621.136 524.218 625.845 521.96C626.803 520.846 626.803 518.059 624.169 515.529C620.002 512.812 616.764 516.894 616.558 516.713C613.768 520.057 616.94 522.888 618.302 523.075Z" fill="#FFD600"/>
<path d="M865.964 490.081C873.633 479.913 883.334 488.302 887.225 493.767C889.92 488.246 898.371 481.328 910.613 497.822L887.225 493.767L865.964 490.081Z" fill="#609881"/>
<path d="M865.964 490.081C873.633 479.913 883.334 488.302 887.225 493.767C889.92 488.246 898.371 481.328 910.613 497.822L865.964 490.081Z" stroke="#609881"/>
<path d="M559.754 381.186C565.106 369.673 576.368 375.895 581.33 380.445C582.799 374.494 589.603 365.999 605.065 379.63L581.33 380.445L559.754 381.186Z" fill="#609881"/>
<path d="M559.754 381.186C565.106 369.673 576.368 375.895 581.33 380.445C582.799 374.494 589.603 365.999 605.065 379.63L559.754 381.186Z" stroke="#609881"/>
<path d="M328.32 487.438C323.391 488.65 324.623 494.103 324.623 494.103C324.623 494.103 342.493 493.861 342.493 492.891V489.256C342.082 488.044 340.645 485.62 338.18 485.62C335.099 485.62 335.099 491.073 335.099 491.679C335.099 492.285 333.25 486.226 328.32 487.438Z" fill="#609881" stroke="#609881"/>
<path d="M144.582 349.517C139.839 351.311 141.738 356.576 141.738 356.576C141.738 356.576 149.195 355.214 159.418 353.98C160.396 353.861 158.974 350.425 158.874 349.623C158.316 348.469 156.589 346.236 154.142 346.531C151.084 346.901 151.76 352.313 151.835 352.915C151.91 353.516 149.324 347.723 144.582 349.517Z" fill="#609881" stroke="#609881"/>
<ellipse cx="177.275" cy="104.769" rx="50.3255" ry="48.5952" fill="#FFF44F"/>
<rect width="52.0942" height="5.00654" rx="2.50327" transform="matrix(0.966997 -0.254788 0.262905 0.964822 227.434 69.4473)" fill="#FFF44F"/>
<rect width="136.047" height="5.00084" rx="2.50042" transform="matrix(0.999853 0.0171616 -0.0177481 0.999842 236.756 101.648)" fill="#FFF44F"/>
<rect width="183.038" height="5.01494" rx="2.50747" transform="matrix(0.916053 0.401056 -0.412465 0.910973 232.389 129.29)" fill="#FFF44F"/>
<rect width="128.411" height="5.0478" rx="2.5239" transform="matrix(0.675323 0.737522 -0.748706 0.662903 214.15 151.581)" fill="#FFF44F"/>
<rect width="69.3245" height="5.08534" rx="2.54267" transform="matrix(0.0532204 0.998583 -0.998675 0.0514661 188.08 162.662)" fill="#FFF44F"/>
<rect width="39.6625" height="5.07918" rx="2.53959" transform="matrix(-0.279945 0.960016 -0.962471 -0.271385 156.543 159.582)" fill="#FFF44F"/>
<defs>
<filter id="filter0_f_229_2286" x="574.518" y="33.4492" width="247.617" height="97.6167" filterUnits="userSpaceOnUse" color-interpolation-filters="sRGB">
<feFlood flood-opacity="0" result="BackgroundImageFix"/>
<feBlend mode="normal" in="SourceGraphic" in2="BackgroundImageFix" result="shape"/>
<feGaussianBlur stdDeviation="2" result="effect1_foregroundBlur_229_2286"/>
</filter>
<linearGradient id="paint0_linear_229_2286" x1="598.466" y1="0" x2="598.466" y2="606.325" gradientUnits="userSpaceOnUse">
<stop stop-color="#A3D2FF" stop-opacity="0.8"/>
<stop offset="0.925" stop-color="#F1EED4" stop-opacity="0.075"/>
<stop offset="1" stop-color="#F5F8FF" stop-opacity="0"/>
</linearGradient>
<linearGradient id="paint1_linear_229_2286" x1="698.211" y1="82.0319" x2="698.211" y2="132.856" gradientUnits="userSpaceOnUse">
<stop stop-color="#D8DEEE"/>
<stop offset="0.9999" stop-color="#D8DEEE" stop-opacity="0.325"/>
<stop offset="1" stop-color="#D8DEEE" stop-opacity="0"/>
</linearGradient>
</defs>
</svg>
