<svg width="1266" height="580" viewBox="0 0 1266 580" fill="none" xmlns="http://www.w3.org/2000/svg">
<rect width="1265.93" height="577.452" fill="url(#paint0_linear_229_2286)"/>
<g filter="url(#filter0_f_229_2286)">
<path d="M616.149 109.975C600.805 77.7058 630.055 69.497 650.674 77.7058C666.403 54.2681 690.954 55.7683 702.463 63.6941C697.476 51.4658 714.451 42.8887 714.451 42.8887C737.947 25.9049 764.64 41.332 771.513 63.6941C780.784 59.3066 806.997 54.9475 818.505 77.7058C835.768 68.7892 855.429 78.9796 859.744 87.8962C864.06 96.8128 878.448 118.553 832.412 119.741C783.053 121.015 671.294 121.015 657.868 121.015C644.441 121.015 626.699 120.59 616.149 109.975Z" fill="url(#paint1_linear_229_2286)"/>
</g>
<path d="M1265.78 432.618C1265.78 662.702 1282.19 535.687 1030.99 535.687C770.588 535.687 322.783 508.803 322.783 432.618C322.783 356.432 533.881 294.671 794.282 294.671C1054.68 294.671 1265.78 356.432 1265.78 432.618Z" fill="#7CBD99"/>
<path d="M834.894 365.551C813.145 353.204 781.161 324.252 827.218 307.221C832.015 306.937 842.282 308.157 844.969 315.31C842.25 302.537 842.762 279.29 866.558 288.487C863.359 279.404 862.144 261.237 882.869 261.237C900.08 261.237 907.127 267.25 909.779 271.287C907.581 263.511 906.186 245.856 934.683 247.187C963.853 248.549 963.469 266.205 959.631 274.862C965.548 261.805 987.745 240.034 1010.01 255.702C1026.27 267.15 1029.09 273.798 1028.63 277.26C1032.25 273.447 1040.12 268.296 1052.22 274.862C1066.04 282.356 1064.06 297.002 1061.34 303.389C1069.18 299.983 1085.9 295.98 1090.12 307.221C1094.35 318.461 1087.73 330.07 1083.89 334.47C1096.68 334.186 1120.93 337.621 1115.55 353.63C1110.18 369.639 1086.13 374.776 1074.77 375.344C1021.84 372.08 899.757 365.551 834.894 365.551Z" fill="#609881"/>
<path fill-rule="evenodd" clip-rule="evenodd" d="M421.252 548.71C694.428 548.71 915.881 497.741 915.881 434.867C915.881 371.992 694.428 321.023 421.252 321.023C243.191 321.023 87.1059 342.678 0 375.17V494.563C87.1059 527.055 243.191 548.71 421.252 548.71Z" fill="#96D8AE"/>
<path fill-rule="evenodd" clip-rule="evenodd" d="M935.868 553.544C1148.81 554.158 1250.11 554.45 1250.11 501.382C1250.11 442.276 1230.45 405.02 1072.69 376.879C1044.77 375.522 1015.78 373.98 986.184 372.405C708.713 357.643 377.865 340.041 377.865 446.379C377.865 505.485 593.197 553.4 858.821 553.4C885.959 553.4 911.636 553.474 935.868 553.544Z" fill="#7CBD99"/>
<path d="M9.00939e-06 560.504C-0.00120267 556.091 0.12021 532.399 0.12021 494.149C413.885 339.022 1252.44 523.9 1260.59 527.3C1267.11 530.02 1265.54 533.249 1265.86 537.075L1265.86 551.1V561.203V580H1257H1249.5H1244.5H1238.06L76.3527 580H48.5447H26.4899H21.5383H15.8241H12.3076H9.00939e-06C-6.24633e-05 573.501 0.0009856 564.061 9.00939e-06 560.504Z" fill="#99DCB0"/>
<path d="M493.573 558.966C489.402 552.503 494.442 552.426 497.483 553.195C497.918 550.887 499.439 546.616 502.045 548.001C504.919 549.528 506.272 551.504 506.105 551.949C511.211 548.823 513.346 549.548 513.777 550.31C514.548 550.879 515.639 551.785 516.077 552.43C517.795 551.286 522.426 549.517 522.901 552.041C523.422 554.811 520.946 557.812 519.642 558.966H493.573Z" fill="#7DB39A"/>
<path d="M493.573 558.966C489.402 552.503 494.442 552.426 497.483 553.195C497.918 550.887 499.439 546.616 502.045 548.001C505.304 549.733 506.608 552.041 505.956 552.041C511.17 548.809 513.342 549.54 513.777 550.31C515.08 551.272 517.296 553.195 515.732 553.195C513.777 553.195 522.249 548.579 522.901 552.041C523.422 554.811 520.946 557.812 519.642 558.966H493.573Z" stroke="#7DB39A"/>
<path d="M517.807 320.445C512.432 314.721 517.38 313.87 520.526 314.16C520.501 311.82 521.162 307.381 524 308.344C527.13 309.406 528.85 311.143 528.772 311.608C533.188 307.744 535.433 308.129 536.006 308.814C536.877 309.256 538.13 309.98 538.687 310.548C540.155 309.157 544.368 306.703 545.331 309.116C546.388 311.763 544.537 315.099 543.48 316.436L517.807 320.445Z" fill="#609881"/>
<path d="M517.807 320.445C512.432 314.721 517.38 313.87 520.526 314.16C520.501 311.82 521.161 307.381 524 308.344C527.549 309.548 529.285 311.621 528.644 311.721C533.144 307.737 535.427 308.123 536.006 308.814C537.478 309.56 540.038 311.114 538.497 311.354C536.572 311.655 544.01 305.806 545.331 309.116C546.388 311.763 544.537 315.099 543.48 316.436L517.807 320.445Z" stroke="#609881"/>
<path d="M829.494 525.446C826.235 523.714 821.152 519.79 826.887 517.944C832.707 516.069 833.802 519.901 833.659 521.1C837.741 516.292 841.69 515.447 843.18 515.635C845.135 516.212 848.655 518.174 847.09 521.406C845.526 524.638 843.832 525.446 843.18 525.446H829.494Z" fill="#7DB39A"/>
<path d="M829.494 525.446C826.235 523.714 821.152 519.79 826.887 517.944C834.056 515.635 834.056 521.983 833.404 521.406C837.575 516.328 841.659 515.443 843.18 515.635C845.135 516.212 848.655 518.174 847.09 521.406C845.526 524.638 843.832 525.446 843.18 525.446H829.494Z" stroke="#7DB39A"/>
<path d="M193.177 524.446C189.919 522.714 184.835 518.79 190.57 516.944C196.391 515.069 197.486 518.901 197.343 520.1C201.424 515.292 205.374 514.447 206.864 514.635C208.819 515.212 212.338 517.174 210.774 520.406C209.21 523.638 207.515 524.446 206.864 524.446H193.177Z" fill="#7DB39A"/>
<path d="M193.177 524.446C189.919 522.714 184.835 518.79 190.57 516.944C197.739 514.635 197.739 520.983 197.088 520.406C201.259 515.328 205.343 514.443 206.864 514.635C208.819 515.212 212.338 517.174 210.774 520.406C209.21 523.638 207.515 524.446 206.864 524.446H193.177Z" stroke="#7DB39A"/>
<path d="M65.7678 476.496C45.0926 463.905 15.7595 436.836 72.2697 430.944C55.9381 415.566 33.4112 385.446 73.9571 387.979C94.6315 389.271 105.125 391.931 109.864 394.704C107.509 380.03 110.388 360.402 135.523 362.807C165.115 365.637 176.712 375.504 178.812 380.083C175.263 370.944 176.337 353.559 209.026 357.123C241.715 360.687 245.588 371.535 243.439 376.513C249.513 371.126 265.672 362.706 281.716 372.126C295.93 380.471 289.75 388.765 283.304 392.984C293.131 387.618 312.555 380.151 328.121 384.719C345.121 389.708 330.977 423.862 323.269 437.696C214.898 447.076 106.239 465.398 65.7678 476.496Z" fill="#7DB39A"/>
<path d="M65.7678 476.496C45.0926 463.905 15.7595 436.836 72.2697 430.944C55.9381 415.566 33.4112 385.446 73.9571 387.979C114.503 390.513 115.89 398.31 111.516 401.891C107.188 387.684 105.931 359.976 135.523 362.807C165.115 365.637 176.712 375.504 178.812 380.083C175.263 370.944 176.337 353.559 209.026 357.123C241.715 360.687 245.588 371.535 243.439 376.513C249.513 371.126 265.672 362.706 281.716 372.126C297.761 381.546 287.818 390.902 280.841 394.403C289.518 389.096 311.12 379.73 328.121 384.719C345.121 389.708 330.977 423.862 323.269 437.696C214.898 447.076 106.239 465.398 65.7678 476.496Z" stroke="#7DB39A"/>
<path fill-rule="evenodd" clip-rule="evenodd" d="M984.768 446.358C987.27 446.011 987.445 443.789 987.221 442.722C988.103 443.503 989.387 443.807 989.918 443.862C990.735 444.006 992.579 443.688 993.412 441.256C994.246 438.824 991.43 437.456 989.918 437.076C990.756 435.737 992.407 433.298 989.366 431.865C986.326 430.432 983.971 432.625 983.236 434.036C983.236 433.515 981.601 432.263 981.09 431.865C979.946 431.232 977.473 430.92 975.757 433.005C974.04 435.089 975.9 436.443 977.167 437.076L976.676 437.293C972.875 438.162 974.653 442.559 975.959 442.859C976.061 442.915 976.141 442.959 976.186 442.993C976.651 443.346 978.883 443.536 979.619 443.319C980.003 443.205 980.216 443.024 980.324 442.872C980.237 443.151 980.194 443.641 980.416 444.296C980.784 445.381 981.642 446.793 984.768 446.358ZM982.774 439.759C982.198 439.688 980.856 438.609 982.036 437.335C982.123 437.404 983.494 435.849 985.256 436.884C986.371 437.848 986.371 438.91 985.965 439.334C983.973 440.194 984.408 439.96 982.774 439.759Z" fill="#D26C55"/>
<path d="M982.774 439.759C984.408 439.96 983.973 440.194 985.965 439.334C986.371 438.91 986.371 437.848 985.256 436.884C983.494 435.849 982.123 437.404 982.036 437.335C980.856 438.609 982.198 439.688 982.774 439.759Z" fill="#FFD600"/>
<path fill-rule="evenodd" clip-rule="evenodd" d="M308.084 360.43C311.836 359.909 312.1 356.576 311.762 354.975C313.087 356.147 315.012 356.603 315.809 356.685C317.035 356.902 319.799 356.424 321.05 352.776C322.301 349.128 318.077 347.077 315.809 346.507C317.065 344.498 319.542 340.839 314.981 338.69C310.42 336.54 306.889 339.83 305.785 341.947C305.785 341.165 303.333 339.287 302.567 338.69C300.85 337.74 297.142 337.273 294.567 340.4C291.992 343.526 294.781 345.557 296.682 346.507L295.946 346.832C290.245 348.135 292.912 354.73 294.87 355.181C295.024 355.265 295.143 355.331 295.21 355.382C295.909 355.912 299.256 356.196 300.36 355.87C300.936 355.7 301.256 355.429 301.418 355.2C301.287 355.619 301.223 356.354 301.555 357.336C302.107 358.964 303.394 361.081 308.084 360.43ZM305.093 350.531C304.228 350.424 302.216 348.806 303.986 346.896C304.117 346.999 306.172 344.666 308.816 346.219C310.488 347.665 310.488 349.257 309.879 349.894C306.891 351.184 307.543 350.833 305.093 350.531Z" fill="#D26C55"/>
<path d="M305.093 350.531C307.543 350.833 306.891 351.184 309.879 349.894C310.488 349.257 310.488 347.665 308.816 346.219C306.172 344.666 304.117 346.999 303.986 346.896C302.216 348.806 304.228 350.424 305.093 350.531Z" fill="#FFD600"/>
<path fill-rule="evenodd" clip-rule="evenodd" d="M658.929 514.666C665.182 513.797 665.621 508.242 665.059 505.573C667.266 507.527 670.474 508.287 671.803 508.423C673.846 508.785 678.454 507.989 680.538 501.909C682.623 495.83 675.583 492.41 671.803 491.46C673.897 488.112 678.025 482.014 670.424 478.432C662.822 474.849 656.937 480.332 655.097 483.86C655.097 482.557 651.01 479.427 649.733 478.432C646.872 476.849 640.691 476.07 636.4 481.282C632.108 486.493 636.757 489.876 639.924 491.46L638.698 492.002C629.196 494.174 633.641 505.166 636.906 505.917C637.161 506.057 637.361 506.167 637.472 506.252C638.636 507.135 644.216 507.609 646.055 507.066C647.015 506.783 647.548 506.33 647.818 505.949C647.6 506.647 647.493 507.872 648.047 509.509C648.967 512.223 651.112 515.751 658.929 514.666ZM653.944 498.167C652.502 497.989 649.149 495.292 652.099 492.108C652.316 492.28 655.742 488.393 660.149 490.98C662.935 493.39 662.935 496.044 661.921 497.105C656.941 499.256 658.027 498.67 653.944 498.167Z" fill="#D26C55"/>
<path d="M653.944 498.167C658.027 498.67 656.941 499.256 661.921 497.105C662.935 496.044 662.935 493.39 660.149 490.98C655.742 488.393 652.316 492.28 652.099 492.108C649.149 495.292 652.502 497.989 653.944 498.167Z" fill="#FFD600"/>
<path d="M915.882 466.743C923.994 457.06 934.253 465.049 938.37 470.254C941.22 464.997 950.158 458.408 963.106 474.117L938.37 470.254L915.882 466.743Z" fill="#609881"/>
<path d="M915.882 466.743C923.994 457.06 934.253 465.049 938.37 470.254C941.22 464.997 950.158 458.408 963.106 474.117L915.882 466.743Z" stroke="#609881"/>
<path d="M592.02 363.034C597.68 352.069 609.592 357.995 614.84 362.329C616.394 356.661 623.589 348.571 639.942 361.552L614.84 362.329L592.02 363.034Z" fill="#609881"/>
<path d="M592.02 363.034C597.68 352.069 609.592 357.995 614.84 362.329C616.394 356.661 623.589 348.571 639.942 361.552L592.02 363.034Z" stroke="#609881"/>
<path d="M347.247 464.227C342.033 465.381 343.336 470.575 343.336 470.575C343.336 470.575 362.236 470.344 362.236 469.421V465.958C361.802 464.804 360.281 462.496 357.674 462.496C354.416 462.496 354.416 467.689 354.416 468.266C354.416 468.843 352.46 463.072 347.247 464.227Z" fill="#609881" stroke="#609881"/>
<path d="M152.917 332.874C147.901 334.582 149.91 339.596 149.91 339.596C149.91 339.596 157.797 338.299 168.609 337.124C169.644 337.011 168.14 333.739 168.034 332.975C167.444 331.876 165.617 329.749 163.029 330.03C159.795 330.382 160.51 335.537 160.589 336.11C160.668 336.682 157.934 331.166 152.917 332.874Z" fill="#609881" stroke="#609881"/>
<ellipse cx="187.492" cy="99.7806" rx="53.2264" ry="46.2811" fill="#FFF44F"/>
<rect width="54.7577" height="4.80642" rx="2.40321" transform="matrix(0.972989 -0.230852 0.289637 0.957137 240.545 66.1406)" fill="#FFF44F"/>
<rect width="143.885" height="4.76288" rx="2.38144" transform="matrix(0.999881 0.0154541 -0.019709 0.999806 250.404 96.8081)" fill="#FFF44F"/>
<rect width="190.621" height="4.86998" rx="2.43499" transform="matrix(0.930314 0.366763 -0.449226 0.893418 245.787 123.133)" fill="#FFF44F"/>
<rect width="128.636" height="5.11208" rx="2.55604" transform="matrix(0.712996 0.701168 -0.781905 0.623397 226.494 144.363)" fill="#FFF44F"/>
<rect width="66.0451" height="5.37713" rx="2.68856" transform="matrix(0.0590831 0.998253 -0.998925 0.0463555 198.922 154.917)" fill="#FFF44F"/>
<rect width="38.1175" height="5.33441" rx="2.66721" transform="matrix(-0.308083 0.951359 -0.969245 -0.246095 165.566 151.983)" fill="#FFF44F"/>
<defs>
<filter id="filter0_f_229_2286" x="607.865" y="31.6655" width="261.428" height="93.3491" filterUnits="userSpaceOnUse" color-interpolation-filters="sRGB">
<feFlood flood-opacity="0" result="BackgroundImageFix"/>
<feBlend mode="normal" in="SourceGraphic" in2="BackgroundImageFix" result="shape"/>
<feGaussianBlur stdDeviation="2" result="effect1_foregroundBlur_229_2286"/>
</filter>
<linearGradient id="paint0_linear_229_2286" x1="632.963" y1="0" x2="632.963" y2="577.452" gradientUnits="userSpaceOnUse">
<stop stop-color="#A3D2FF" stop-opacity="0.8"/>
<stop offset="0.925" stop-color="#F1EED4" stop-opacity="0.075"/>
<stop offset="1" stop-color="#F5F8FF" stop-opacity="0"/>
</linearGradient>
<linearGradient id="paint1_linear_229_2286" x1="738.458" y1="78.1253" x2="738.458" y2="126.529" gradientUnits="userSpaceOnUse">
<stop stop-color="#D8DEEE"/>
<stop offset="0.9999" stop-color="#D8DEEE" stop-opacity="0.325"/>
<stop offset="1" stop-color="#D8DEEE" stop-opacity="0"/>
</linearGradient>
</defs>
</svg>
