<svg width="1238" height="596" viewBox="0 0 1238 596" fill="none" xmlns="http://www.w3.org/2000/svg">
<rect width="1237.93" height="593.382" fill="url(#paint0_linear_229_2286)"/>
<g filter="url(#filter0_f_229_2286)">
<path d="M602.523 113.01C587.518 79.85 616.122 71.4146 636.285 79.85C651.665 55.7656 675.674 57.3072 686.928 65.4517C682.051 52.886 698.651 44.0724 698.651 44.0724C721.627 26.6201 747.73 42.4727 754.451 65.4517C763.517 60.9432 789.15 56.4638 800.404 79.85C817.285 70.6874 836.511 81.1588 840.731 90.3214C844.951 99.484 859.021 121.824 814.003 123.045C765.736 124.353 656.448 124.353 643.319 124.353C630.189 124.353 612.84 123.917 602.523 113.01Z" fill="url(#paint1_linear_229_2286)"/>
</g>
<path d="M1237.79 444.552C1237.79 680.983 1253.83 550.464 1008.19 550.464C753.544 550.464 315.643 522.839 315.643 444.552C315.643 366.264 522.071 302.8 776.714 302.8C1031.36 302.8 1237.79 366.264 1237.79 444.552Z" fill="#7CBD99"/>
<path d="M816.43 375.635C795.162 362.947 763.885 333.196 808.923 315.696C813.615 315.404 823.655 316.658 826.282 324.008C823.623 310.883 824.124 286.994 847.393 296.445C844.266 287.111 843.077 268.444 863.344 268.444C880.174 268.444 887.066 274.623 889.659 278.771C887.509 270.78 886.146 252.638 914.012 254.006C942.537 255.406 942.161 273.548 938.408 282.444C944.194 269.027 965.9 246.655 987.669 262.756C1003.57 274.52 1006.33 281.351 1005.88 284.909C1009.42 280.99 1017.11 275.697 1028.95 282.444C1042.46 290.145 1040.53 305.195 1037.87 311.758C1045.53 308.258 1061.89 304.145 1066.02 315.696C1070.14 327.246 1063.67 339.176 1059.92 343.697C1072.43 343.405 1096.14 346.934 1090.88 363.385C1085.63 379.836 1062.11 385.115 1051 385.698C999.241 382.344 879.859 375.635 816.43 375.635Z" fill="#609881"/>
<path fill-rule="evenodd" clip-rule="evenodd" d="M411.934 563.847C679.068 563.847 895.623 511.472 895.623 446.863C895.623 382.254 679.068 329.879 411.934 329.879C237.812 329.879 85.1797 352.131 0 385.519V508.207C85.1797 541.595 237.812 563.847 411.934 563.847Z" fill="#96D8AE"/>
<path fill-rule="evenodd" clip-rule="evenodd" d="M915.167 568.815C1123.4 569.445 1222.46 569.745 1222.46 515.213C1222.46 454.477 1203.23 416.193 1048.96 387.276C1021.66 385.882 993.313 384.297 964.371 382.679C693.036 367.509 369.506 349.421 369.506 458.693C369.506 519.43 580.075 568.667 839.825 568.667C866.363 568.667 891.472 568.743 915.167 568.815Z" fill="#7CBD99"/>
<path d="M8.81014e-06 575.966C-0.00117607 571.431 0.117551 547.086 0.117551 507.78C404.731 348.374 1224.74 538.352 1232.71 541.846C1239.09 544.641 1237.55 547.96 1237.87 551.89C1237.87 554.365 1237.85 565.953 1237.87 566.302C1238.34 575.037 1235.99 579.404 1234.59 582.025C1233.65 584.208 1229.43 588.576 1228.96 589.012C1228.69 589.259 1225.68 591.487 1223.8 592.506C1221.93 593.817 1217.68 594.915 1216.77 595.127C1214.89 595.563 1213.49 596 1210.67 596L74.6641 596H47.4711H25.9041H21.062H15.4741H12.0354H8.81014e-06C-6.10819e-05 589.322 0.000963802 579.622 8.81014e-06 575.966Z" fill="#99DCB0"/>
<path d="M482.655 574.385C478.576 567.744 483.505 567.664 486.479 568.455C486.904 566.083 488.391 561.695 490.94 563.118C493.75 564.687 495.074 566.717 494.91 567.175C499.903 563.963 501.991 564.707 502.412 565.49C503.166 566.075 504.233 567.007 504.661 567.669C506.342 566.493 510.87 564.676 511.334 567.269C511.844 570.116 509.422 573.199 508.148 574.385H482.655Z" fill="#7DB39A"/>
<path d="M482.655 574.385C478.576 567.744 483.505 567.664 486.479 568.455C486.904 566.083 488.391 561.695 490.94 563.118C494.127 564.897 495.401 567.269 494.764 567.269C499.863 563.948 501.987 564.7 502.412 565.49C503.686 566.479 505.853 568.455 504.324 568.455C502.412 568.455 510.697 563.711 511.334 567.269C511.844 570.116 509.422 573.199 508.148 574.385H482.655Z" stroke="#7DB39A"/>
<path d="M506.356 329.285C501.1 323.403 505.939 322.529 509.016 322.827C508.991 320.423 509.637 315.861 512.413 316.851C515.473 317.942 517.155 319.727 517.079 320.204C521.397 316.234 523.592 316.63 524.153 317.333C525.005 317.787 526.23 318.532 526.775 319.115C528.21 317.686 532.33 315.164 533.272 317.644C534.305 320.364 532.496 323.792 531.462 325.166L506.356 329.285Z" fill="#609881"/>
<path d="M506.356 329.285C501.1 323.403 505.939 322.529 509.016 322.827C508.991 320.423 509.637 315.861 512.413 316.851C515.883 318.088 517.581 320.218 516.953 320.321C521.355 316.227 523.587 316.623 524.153 317.333C525.593 318.1 528.096 319.697 526.589 319.944C524.706 320.253 531.98 314.243 533.272 317.644C534.305 320.364 532.496 323.792 531.462 325.166L506.356 329.285Z" stroke="#609881"/>
<path d="M811.148 539.941C807.962 538.162 802.991 534.129 808.599 532.232C814.291 530.306 815.361 534.243 815.222 535.475C819.213 530.534 823.075 529.666 824.532 529.86C826.444 530.453 829.885 532.469 828.356 535.79C826.826 539.11 825.169 539.941 824.532 539.941H811.148Z" fill="#7DB39A"/>
<path d="M811.148 539.941C807.962 538.162 802.991 534.129 808.599 532.232C815.609 529.86 815.609 536.383 814.972 535.79C819.051 530.571 823.045 529.662 824.532 529.86C826.444 530.453 829.885 532.469 828.356 535.79C826.826 539.11 825.169 539.941 824.532 539.941H811.148Z" stroke="#7DB39A"/>
<path d="M188.906 538.913C185.719 537.134 180.748 533.102 186.357 531.204C192.049 529.278 193.119 533.216 192.979 534.448C196.971 529.507 200.833 528.639 202.29 528.832C204.202 529.425 207.643 531.441 206.113 534.762C204.584 538.083 202.927 538.913 202.29 538.913H188.906Z" fill="#7DB39A"/>
<path d="M188.906 538.913C185.719 537.134 180.748 533.102 186.357 531.204C193.367 528.832 193.367 535.355 192.73 534.762C196.809 529.544 200.803 528.634 202.29 528.832C204.202 529.425 207.643 531.441 206.113 534.762C204.584 538.083 202.927 538.913 202.29 538.913H188.906Z" stroke="#7DB39A"/>
<path d="M64.3124 489.642C44.0944 476.703 15.41 448.887 70.6705 442.832C54.7 427.031 32.6713 396.079 72.3205 398.682C92.5377 400.01 102.799 402.744 107.433 405.592C105.131 390.514 107.946 370.345 132.525 372.815C161.462 375.724 172.803 385.863 174.857 390.568C171.386 381.178 172.436 363.312 204.402 366.975C236.368 370.637 240.156 381.785 238.054 386.9C243.993 381.364 259.795 372.712 275.485 382.392C289.384 390.967 283.341 399.49 277.037 403.825C286.647 398.311 305.641 390.638 320.863 395.332C337.487 400.459 323.656 435.555 316.118 449.771C210.144 459.41 103.889 478.237 64.3124 489.642Z" fill="#7DB39A"/>
<path d="M64.3124 489.642C44.0944 476.703 15.41 448.887 70.6705 442.832C54.7 427.031 32.6713 396.079 72.3205 398.682C111.97 401.286 113.326 409.298 109.048 412.979C104.817 398.379 103.588 369.907 132.525 372.815C161.462 375.724 172.803 385.863 174.857 390.568C171.386 381.178 172.436 363.312 204.402 366.975C236.368 370.637 240.156 381.785 238.054 386.9C243.993 381.364 259.795 372.712 275.485 382.392C291.175 392.072 281.452 401.686 274.629 405.284C283.114 399.83 304.239 390.206 320.863 395.332C337.487 400.459 323.656 435.555 316.118 449.771C210.144 459.41 103.889 478.237 64.3124 489.642Z" stroke="#7DB39A"/>
<path fill-rule="evenodd" clip-rule="evenodd" d="M962.988 458.672C965.434 458.315 965.606 456.032 965.386 454.935C966.249 455.738 967.504 456.05 968.024 456.106C968.823 456.255 970.625 455.927 971.441 453.428C972.256 450.93 969.502 449.524 968.024 449.133C968.843 447.757 970.458 445.251 967.484 443.778C964.511 442.306 962.209 444.559 961.489 446.01C961.489 445.474 959.891 444.188 959.391 443.778C958.272 443.128 955.854 442.808 954.176 444.95C952.497 447.092 954.315 448.483 955.554 449.133L955.075 449.356C951.358 450.249 953.097 454.767 954.373 455.076C954.473 455.133 954.551 455.179 954.595 455.213C955.05 455.576 957.233 455.771 957.952 455.548C958.328 455.432 958.536 455.246 958.642 455.089C958.557 455.376 958.515 455.88 958.732 456.552C959.091 457.668 959.931 459.118 962.988 458.672ZM961.038 451.89C960.474 451.817 959.162 450.709 960.316 449.4C960.401 449.471 961.741 447.873 963.465 448.936C964.555 449.927 964.555 451.018 964.158 451.454C962.21 452.338 962.635 452.097 961.038 451.89Z" fill="#D26C55"/>
<path d="M961.038 451.89C962.635 452.097 962.21 452.338 964.158 451.454C964.555 451.018 964.555 449.927 963.465 448.936C961.741 447.873 960.401 449.471 960.316 449.4C959.162 450.709 960.474 451.817 961.038 451.89Z" fill="#FFD600"/>
<path fill-rule="evenodd" clip-rule="evenodd" d="M301.271 370.373C304.94 369.838 305.198 366.413 304.868 364.767C306.163 365.972 308.045 366.441 308.824 366.524C310.023 366.747 312.727 366.257 313.95 362.508C315.173 358.76 311.042 356.651 308.824 356.066C310.053 354.002 312.475 350.242 308.015 348.033C303.555 345.824 300.102 349.205 299.023 351.38C299.023 350.577 296.625 348.647 295.876 348.033C294.197 347.057 290.57 346.577 288.052 349.79C285.535 353.003 288.262 355.089 290.121 356.066L289.401 356.4C283.826 357.739 286.434 364.516 288.349 364.979C288.499 365.066 288.616 365.133 288.682 365.186C289.365 365.73 292.638 366.022 293.717 365.688C294.281 365.513 294.594 365.234 294.752 364.999C294.624 365.429 294.561 366.185 294.886 367.194C295.426 368.867 296.685 371.043 301.271 370.373ZM298.346 360.201C297.5 360.091 295.533 358.429 297.264 356.465C297.391 356.572 299.401 354.175 301.987 355.77C303.621 357.256 303.621 358.892 303.026 359.546C300.104 360.872 300.742 360.511 298.346 360.201Z" fill="#D26C55"/>
<path d="M298.346 360.201C300.742 360.511 300.104 360.872 303.026 359.546C303.621 358.892 303.621 357.256 301.987 355.77C299.401 354.175 297.391 356.572 297.264 356.465C295.533 358.429 297.5 360.091 298.346 360.201Z" fill="#FFD600"/>
<path fill-rule="evenodd" clip-rule="evenodd" d="M644.355 528.863C650.469 527.971 650.899 522.263 650.349 519.52C652.508 521.528 655.645 522.309 656.944 522.449C658.942 522.82 663.448 522.002 665.486 515.755C667.525 509.508 660.64 505.993 656.944 505.017C658.992 501.577 663.029 495.311 655.595 491.63C648.161 487.949 642.406 493.582 640.608 497.208C640.608 495.869 636.611 492.653 635.362 491.63C632.565 490.003 626.52 489.204 622.324 494.558C618.127 499.913 622.673 503.39 625.771 505.017L624.572 505.575C615.28 507.806 619.626 519.102 622.819 519.873C623.068 520.017 623.263 520.13 623.373 520.217C624.511 521.125 629.967 521.612 631.765 521.054C632.704 520.763 633.226 520.298 633.489 519.906C633.276 520.624 633.172 521.883 633.714 523.564C634.613 526.353 636.711 529.979 644.355 528.863ZM639.48 511.909C638.07 511.727 634.791 508.956 637.676 505.683C637.888 505.861 641.238 501.866 645.547 504.525C648.272 507.001 648.272 509.728 647.28 510.818C642.41 513.028 643.473 512.426 639.48 511.909Z" fill="#D26C55"/>
<path d="M639.48 511.909C643.473 512.426 642.41 513.028 647.28 510.818C648.272 509.728 648.272 507.001 645.547 504.525C641.238 501.866 637.888 505.861 637.676 505.683C634.791 508.956 638.07 511.727 639.48 511.909Z" fill="#FFD600"/>
<path d="M895.625 479.619C903.557 469.669 913.59 477.878 917.615 483.227C920.403 477.824 929.143 471.054 941.804 487.195L917.615 483.227L895.625 479.619Z" fill="#609881"/>
<path d="M895.625 479.619C903.557 469.669 913.59 477.878 917.615 483.227C920.403 477.824 929.143 471.054 941.804 487.195L895.625 479.619Z" stroke="#609881"/>
<path d="M578.927 373.049C584.463 361.781 596.111 367.871 601.243 372.324C602.762 366.5 609.799 358.186 625.79 371.526L601.243 372.324L578.927 373.049Z" fill="#609881"/>
<path d="M578.927 373.049C584.463 361.781 596.111 367.871 601.243 372.324C602.762 366.5 609.799 358.186 625.79 371.526L578.927 373.049Z" stroke="#609881"/>
<path d="M339.567 477.033C334.469 478.219 335.743 483.556 335.743 483.556C335.743 483.556 354.225 483.319 354.225 482.37V478.812C353.8 477.626 352.313 475.254 349.764 475.254C346.577 475.254 346.577 480.591 346.577 481.184C346.577 481.777 344.666 475.847 339.567 477.033Z" fill="#609881" stroke="#609881"/>
<path d="M149.534 342.056C144.629 343.811 146.593 348.964 146.593 348.964C146.593 348.964 154.306 347.631 164.879 346.423C165.891 346.308 164.42 342.945 164.316 342.16C163.739 341.031 161.952 338.845 159.422 339.134C156.259 339.496 156.958 344.793 157.036 345.381C157.114 345.97 154.439 340.301 149.534 342.056Z" fill="#609881" stroke="#609881"/>
<ellipse cx="183.346" cy="102.533" rx="52.0493" ry="47.5578" fill="#FFF44F"/>
<rect width="53.6952" height="4.91941" rx="2.45971" transform="matrix(0.970298 -0.241914 0.276725 0.960949 235.225 67.9648)" fill="#FFF44F"/>
<rect width="140.704" height="4.89418" rx="2.44709" transform="matrix(0.999868 0.0162393 -0.018756 0.999824 244.865 99.4785)" fill="#FFF44F"/>
<rect width="187.707" height="4.95643" rx="2.47821" transform="matrix(0.92386 0.382731 -0.431629 0.902051 240.35 126.53)" fill="#FFF44F"/>
<rect width="128.974" height="5.09927" rx="2.54964" transform="matrix(0.6954 0.718623 -0.766534 0.642204 221.486 148.345)" fill="#FFF44F"/>
<rect width="67.8559" height="5.25879" rx="2.6294" transform="matrix(0.0562347 0.998418 -0.998813 0.0487062 194.523 159.19)" fill="#FFF44F"/>
<rect width="38.9931" height="5.23287" rx="2.61644" transform="matrix(-0.294504 0.95565 -0.966201 -0.257791 161.904 156.175)" fill="#FFF44F"/>
<defs>
<filter id="filter0_f_229_2286" x="594.334" y="32.6499" width="255.824" height="95.7036" filterUnits="userSpaceOnUse" color-interpolation-filters="sRGB">
<feFlood flood-opacity="0" result="BackgroundImageFix"/>
<feBlend mode="normal" in="SourceGraphic" in2="BackgroundImageFix" result="shape"/>
<feGaussianBlur stdDeviation="2" result="effect1_foregroundBlur_229_2286"/>
</filter>
<linearGradient id="paint0_linear_229_2286" x1="618.964" y1="0" x2="618.964" y2="593.382" gradientUnits="userSpaceOnUse">
<stop stop-color="#A3D2FF" stop-opacity="0.8"/>
<stop offset="0.925" stop-color="#F1EED4" stop-opacity="0.075"/>
<stop offset="1" stop-color="#F5F8FF" stop-opacity="0"/>
</linearGradient>
<linearGradient id="paint1_linear_229_2286" x1="722.127" y1="80.2809" x2="722.127" y2="130.02" gradientUnits="userSpaceOnUse">
<stop stop-color="#D8DEEE"/>
<stop offset="0.9999" stop-color="#D8DEEE" stop-opacity="0.325"/>
<stop offset="1" stop-color="#D8DEEE" stop-opacity="0"/>
</linearGradient>
</defs>
</svg>
