<svg width="180" height="180" viewBox="0 0 180 180" fill="none" xmlns="http://www.w3.org/2000/svg">
<rect x="0.5" y="0.5" width="179" height="179" rx="9.5" fill="white" stroke="#C8C8C8"/>
<path d="M91.92 133C90.32 133 88.92 132.4 87.72 131.2C86.52 130 85.92 128.56 85.92 126.88V53.68L77.16 57.4C75.8 57.96 74.52 58.24 73.32 58.24C71.56 58.24 70.08 57.68 68.88 56.56C67.76 55.44 67.2 54 67.2 52.24C67.2 50.96 67.52 49.8 68.16 48.76C68.8 47.72 69.8 46.96 71.16 46.48L89.88 39.76C90.28 39.6 90.68 39.48 91.08 39.4C91.48 39.32 91.84 39.28 92.16 39.28C94 39.28 95.44 39.88 96.48 41.08C97.6 42.2 98.16 43.68 98.16 45.52V126.88C98.16 128.56 97.56 130 96.36 131.2C95.16 132.4 93.68 133 91.92 133Z" fill="black"/>
</svg>
