<svg width="180" height="180" viewBox="0 0 180 180" fill="none" xmlns="http://www.w3.org/2000/svg">
<rect x="0.5" y="0.5" width="179" height="179" rx="9.5" fill="white" stroke="#C8C8C8"/>
<path d="M67.92 133C66.16 133 64.68 132.4 63.48 131.2C62.36 130 61.8 128.56 61.8 126.88C61.8 125.12 62.36 123.68 63.48 122.56L97.56 82.72C99.96 79.92 101.8 77.28 103.08 74.8C104.44 72.32 105.12 69.96 105.12 67.72C105.12 64.2 104.52 61.16 103.32 58.6C102.12 56.04 100.4 54.08 98.16 52.72C95.92 51.28 93.24 50.56 90.12 50.56C87.08 50.56 84.32 51.36 81.84 52.96C79.44 54.48 77.52 56.56 76.08 59.2C74.72 61.76 74.04 64.6 74.04 67.72C74.04 69.32 73.44 70.72 72.24 71.92C71.12 73.12 69.68 73.72 67.92 73.72C66.24 73.72 64.8 73.12 63.6 71.92C62.4 70.72 61.8 69.32 61.8 67.72C61.8 62.28 63.04 57.44 65.52 53.2C68 48.88 71.36 45.48 75.6 43C79.92 40.52 84.76 39.28 90.12 39.28C95.56 39.28 100.28 40.44 104.28 42.76C108.28 45.08 111.36 48.36 113.52 52.6C115.76 56.84 116.88 61.88 116.88 67.72C116.88 70.28 116.32 72.88 115.2 75.52C114.16 78.16 112.8 80.68 111.12 83.08C109.52 85.48 107.88 87.64 106.2 89.56L78.72 120.76H112.32C114.08 120.76 115.56 121.4 116.76 122.68C117.96 123.88 118.56 125.28 118.56 126.88C118.56 128.56 117.96 130 116.76 131.2C115.56 132.4 114.08 133 112.32 133H67.92Z" fill="black"/>
</svg>
